<?xml version="1.0" encoding="utf-8"?>
<!-- Generator: Adobe Illustrator 27.0.1, SVG Export Plug-In . SVG Version: 6.00 Build 0)  -->
<svg version="1.1" id="Layer_1" xmlns="http://www.w3.org/2000/svg" xmlns:xlink="http://www.w3.org/1999/xlink" x="0px" y="0px"
	 viewBox="0 0 108.2 106.6" style="enable-background:new 0 0 108.2 106.6;" xml:space="preserve">
<style type="text/css">
	.st0{fill:#6EAADE;}
	.st1{fill:#F4D74C;}
	.st2{fill:#CA8634;}
	.st3{fill:#FFFFFF;}
	.st4{fill:#4D7A99;}
	.st5{fill:#424548;}
</style>
<g>
	<g>
		<path class="st0" d="M103.2,32.6c0,0,1.9-10.9-6.2-6.1c0,0-0.8-11.2-7.6-3.3c0,0-3.7-6.8-7.8-0.5c-5.5,8.5-9.2,21.8-5.6,44.1
			l6.6-4.4c4.8-14,21.8-15.5,24.2-23.1C108.4,34,103.2,32.6,103.2,32.6z"/>
		<path class="st0" d="M36.6,20.8l-17.5,6.4C22.9,6,48.4,7.4,48.4,7.4S36.5,13.1,36.6,20.8z"/>
		<path class="st0" d="M39.5,24.7l-18.5,2.5c8.5-19.9,33-13,33-13S41.1,17.2,39.5,24.7z"/>
		<path class="st1" d="M1.1,40.9l9.6-2.5l0,6.4C10.7,44.7,4.9,43.8,1.1,40.9z"/>
		<path class="st1" d="M10.7,38.3l-9.6-4.8c6.4-5,13.6-3.4,13.6-3.4L10.7,38.3z"/>
		<path class="st2" d="M57.4,83.3h-3.7v13.9C53,97.3,49.8,97,48.5,97c-3.3,0-5.9,2.2-5.9,2.2h14.7L57.4,83.3L57.4,83.3z"/>
		<path class="st2" d="M41.7,83.3H38v13.9c-0.6,0.1-3.8-0.2-5.1-0.2c-3.3,0-5.9,2.2-5.9,2.2h14.7V83.3z"/>
		<path class="st0" d="M93,53.7c6.8,0-7.2,31-41.2,31c-23,0-42.1-9.2-42.1-37.9c0-17.9,11.3-32.3,34.4-26.5
			C67.6,26.2,55.5,53.7,93,53.7z"/>
		<path class="st3" d="M64,81c-27.5-0.1-24.7-21.2-49.4-19.7C23.7,89.2,64,81,64,81z"/>
		<path class="st4" d="M66.6,41.3C48.9,24,30.9,52.3,52.7,63.5c21.4,11,36-8.5,36-8.5S77.9,52.4,66.6,41.3z"/>
		<circle class="st5" cx="24.2" cy="33.8" r="4.4"/>
	</g>
</g>
</svg>
