<?xml version="1.0" encoding="utf-8"?>
<!-- Generator: Adobe Illustrator 27.0.1, SVG Export Plug-In . SVG Version: 6.00 Build 0)  -->
<svg version="1.1" id="Layer_1" xmlns="http://www.w3.org/2000/svg" xmlns:xlink="http://www.w3.org/1999/xlink" x="0px" y="0px"
	 viewBox="0 0 98.2 72.6" style="enable-background:new 0 0 98.2 72.6;" xml:space="preserve">
<style type="text/css">
	.st0{fill:#77943F;}
	.st1{fill:#95BD58;}
	.st2{fill:#939698;}
	.st3{fill:#CECECE;}
	.st4{fill:#FFFFFF;}
</style>
<g>
	<g>
		<rect x="1.3" y="58" class="st0" width="95.5" height="13.4"/>
		<rect x="1.3" y="1.2" class="st1" width="95.5" height="56.7"/>
		<rect x="37.2" y="58" class="st2" width="23.9" height="13.4"/>
		<rect x="7.3" y="7.2" class="st0" width="83.6" height="44.8"/>
		<rect x="11.8" y="11.7" class="st1" width="74.6" height="35.8"/>
		
			<ellipse transform="matrix(8.659402e-02 -0.9962 0.9962 8.659402e-02 33.0773 95.2787)" class="st0" cx="68.5" cy="29.6" rx="11.9" ry="11.9"/>
		<rect x="37.2" y="1.2" class="st3" width="23.9" height="56.7"/>
		<path class="st4" d="M25.2,28.1c-1.6,0-3-1.3-3-3s1.3-3,3-3s3,1.3,3,3h3c0-2.8-1.9-5.1-4.5-5.8v-1.7h-3v1.7
			c-2.6,0.7-4.5,3-4.5,5.8c0,3.3,2.7,6,6,6c1.6,0,3,1.3,3,3c0,1.6-1.3,3-3,3c-1.6,0-3-1.3-3-3h-3c0,2.8,1.9,5.1,4.5,5.8v1.7h3v-1.7
			c2.6-0.7,4.5-3,4.5-5.8C31.2,30.8,28.5,28.1,25.2,28.1z"/>
	</g>
</g>
</svg>
