<?xml version="1.0" encoding="utf-8"?>
<!-- Generator: Adobe Illustrator 27.0.1, SVG Export Plug-In . SVG Version: 6.00 Build 0)  -->
<svg version="1.1" id="Layer_1" xmlns="http://www.w3.org/2000/svg" xmlns:xlink="http://www.w3.org/1999/xlink" x="0px" y="0px"
	 viewBox="0 0 47 46.3" style="enable-background:new 0 0 47 46.3;" xml:space="preserve">
<style type="text/css">
	.st0{fill:#424548;}
	.st1{fill:#FFFFFF;}
	.st2{fill:#E6E6E6;}
	.st3{fill:#B5B5B5;}
</style>
<g>
	<g>
		<path class="st0" d="M45.9,5.7l-5-5c-0.3-0.3-0.9-0.5-1.3-0.5H5.9v3.1H2.8V0.1H1.3c-0.4,0-0.8,0.3-0.8,0.8v44.5
			c0,0.4,0.3,0.8,0.8,0.8h44.5c0.4,0,0.8-0.3,0.8-0.8V7C46.5,6.6,46.2,6,45.9,5.7z"/>
		<path class="st1" d="M8.2,46.1V24.7c0-0.8,0.7-1.5,1.5-1.5h27.6c0.8,0,1.5,0.7,1.5,1.5v21.5H8.2z"/>
		<path class="st2" d="M12.8,0.1v15.3c0,0.8,0.7,1.5,1.5,1.5h23c0.8,0,1.5-0.7,1.5-1.5V0.1H12.8z"/>
		<rect x="26.6" y="3.2" class="st0" width="7.7" height="12.3"/>
		<path class="st1" d="M44.2,41.5c0-0.4-0.3-0.8-0.8-0.8h-1.5c-0.4,0-0.8,0.3-0.8,0.8v1.5c0,0.4,0.3,0.8,0.8,0.8h1.5
			c0.4,0,0.8-0.3,0.8-0.8V41.5z"/>
		<rect x="8.2" y="40" class="st3" width="30.7" height="6.1"/>
		<rect x="12" y="26.2" class="st3" width="23" height="1.5"/>
		<rect x="12" y="30.8" class="st3" width="23" height="1.5"/>
		<rect x="12" y="35.4" class="st3" width="23" height="1.5"/>
	</g>
</g>
</svg>
