<?xml version="1.0" encoding="utf-8"?>
<!-- Generator: Adobe Illustrator 27.0.1, SVG Export Plug-In . SVG Version: 6.00 Build 0)  -->
<svg version="1.1" id="Layer_1" xmlns="http://www.w3.org/2000/svg" xmlns:xlink="http://www.w3.org/1999/xlink" x="0px" y="0px"
	 viewBox="0 0 267 46.3" style="enable-background:new 0 0 267 46.3;" xml:space="preserve">
<style type="text/css">
	.st0{fill:#E6F3FF;}
</style>
<g>
	<path class="st0" d="M16.3,41.4V14.1H2.5V4.9h29.4v9.2H18.1v27.2H16.3z"/>
	<path class="st0" d="M42.9,4.9h26.5v9.2h-17v4.6h14.1v8.7H52.4v4.7h17v9.2H42.9V4.9z"/>
	<path class="st0" d="M109.7,27.6c0,4.6-1.3,8.1-3.9,10.7c-2.7,2.6-6.3,3.8-10.9,3.8c-2.8,0-5.3-0.6-7.6-1.9c-2.3-1.3-4.2-3-5.5-5.3
		c-1.4-2.3-2-5-2-8v-7.6c0-3,0.7-5.6,2-7.9c1.3-2.3,3.1-4.1,5.4-5.4c2.3-1.3,4.8-1.9,7.7-1.9c4.6,0,8.3,1.3,10.9,3.8
		c2.6,2.5,4,6.1,4,10.7h-9.4c0-1.8-0.5-3.2-1.4-4.1S96.5,13,94.7,13c-1.6,0-2.9,0.5-4,1.5c-1,1-1.6,2.4-1.6,4.3v8.5
		c0,1.9,0.6,3.3,1.6,4.3c1.1,1,2.5,1.5,4.1,1.5c3.7,0,5.5-1.9,5.5-5.7H109.7z"/>
	<path class="st0" d="M119.4,41.4V4.9h1.9v17.2h24.2V4.9h1.9v36.4h-1.9V24.1h-24.2v17.3H119.4z"/>
	<path class="st0" d="M157.5,4.9h2.1l12.7,22.5L185,4.9h1.9v36.4h-29.4V4.9z M159.4,39.4H185V8.8l-11.8,20.7h-1.8l-11.9-21V39.4z"/>
	<path class="st0" d="M228.1,41.4h-34.3l17.2-37.2L228.1,41.4z M196.8,39.4h28.3L210.9,8.7L196.8,39.4z"/>
	<path class="st0" d="M242.9,7.8c-2,1.2-3.6,2.8-4.8,4.8c-1.2,2-1.8,4.2-1.8,6.6v6.9c0,2.5,0.3,4.5,1,6.1c1,2.3,2.5,4.1,4.5,5.5
		c2,1.4,4.2,2.2,6.7,2.4v-17h16v3.5c0,2.2-0.3,4.2-1,6c-1.1,2.9-2.9,5.2-5.4,7c-2.5,1.7-5.4,2.6-8.6,2.6c-3,0-5.8-0.8-8.3-2.5
		c-2.5-1.7-4.3-3.9-5.5-6.6c-0.8-2-1.3-4.3-1.3-7v-6.9c0-2.7,0.7-5.2,2-7.5c1.3-2.3,3.2-4.1,5.5-5.5c2.3-1.3,4.8-2,7.5-2
		c2.3,0,4.3,0.4,6.2,1.1c1.9,0.8,3.5,1.8,4.8,3.3c1.1,1.2,2,2.5,2.6,4c0.7,1.5,1,2.9,1,4.5h-1.9c0-1.3-0.4-2.6-1-3.8
		c-0.6-1.3-1.4-2.4-2.3-3.4c-2.3-2.4-5.5-3.7-9.5-3.7C247.1,6.1,244.9,6.7,242.9,7.8z M262.5,25h-12.1v15.1c2.5-0.2,4.8-1,6.8-2.4
		c2-1.4,3.5-3.3,4.4-5.6c0.6-1.6,0.9-3.5,0.9-5.5V25z"/>
</g>
</svg>
